<svg height="512pt" viewBox="-61 0 512 512" width="512pt" xmlns="http://www.w3.org/2000/svg"><path d="m390 452c0 47.398438-122.699219 60-195 60s-195-12.601562-195-60c0-52.199219 145.5-58.800781 174.601562-59.699219h40.796876c29.101562.898438 174.601562 7.5 174.601562 59.699219zm0 0" fill="#7fe881"/><path d="m390 452c0 47.398438-122.699219 60-195 60v-119.699219h20.398438c29.101562.898438 174.601562 7.5 174.601562 59.699219zm0 0" fill="#5bc980"/><path d="m195 0c-90.902344 0-165 74.097656-165 165 0 52.800781 12.300781 70.800781 91.800781 188.398438 16.800781 24.902343 36.898438 55.300781 60.601563 91 2.996094 4.199218 7.5 6.601562 12.597656 6.601562s9.601562-2.402344 12.597656-6.601562c23.703125-36 44.101563-66.699219 60.902344-91.597657 77.402344-114.300781 91.5-135 91.5-187.800781 0-90.902344-74.097656-165-165-165zm0 0" fill="#f9568e"/><path d="m360 165c0 52.800781-14.097656 73.5-91.5 187.800781-16.800781 24.898438-37.199219 55.597657-60.902344 91.597657-2.996094 4.199218-7.5 6.601562-12.597656 6.601562v-451c90.902344 0 165 74.097656 165 165zm0 0" fill="#db3271"/><path d="m291.898438 148.601562-31.199219 40.199219 3.601562 51c.597657 4.800781-1.800781 9.898438-5.699219 12.898438-4.203124 3-9.601562 3.902343-14.402343 2.101562l-49.199219-16.5-45.601562 18.300781c-3.726563 1.859376-9.507813 1.75-14.398438-1.5-4.199219-3-6.601562-7.800781-6.300781-12.902343l1.5-50.699219-32.699219-39c-3.300781-3.898438-4.199219-9-3-14.101562 1.5-4.796876 5.398438-8.398438 10.199219-9.898438l48.902343-14.101562 27-43.199219c4.347657-7.25 12.628907-7.789063 14.398438-6.898438 4.199219.300781 8.398438 2.699219 10.800781 6.300781l28.5 42.296876 49.5 12c4.800781 1.203124 9 4.800781 10.5 9.601562 1.800781 4.800781.898438 10.199219-2.402343 14.101562zm0 0" fill="#ffde46"/><path d="m291.898438 148.601562-31.199219 40.199219 3.601562 51c.597657 4.800781-1.800781 9.898438-5.699219 12.898438-4.203124 3-9.601562 3.902343-14.402343 2.101562l-49.199219-16.5v-174c4.199219.300781 8.398438 2.699219 10.800781 6.300781l28.5 42.296876 49.5 12c4.800781 1.203124 9 4.800781 10.5 9.601562 1.800781 4.800781.898438 10.199219-2.402343 14.101562zm0 0" fill="#ff9f04"/></svg>